<?xml version="1.0" standalone="no"?>
<!DOCTYPE svg PUBLIC "-//W3C//DTD SVG 20010904//EN"
 "http://www.w3.org/TR/2001/REC-SVG-20010904/DTD/svg10.dtd">
<svg version="1.0" xmlns="http://www.w3.org/2000/svg"
 width="512.000000pt" height="512.000000pt" viewBox="0 0 512.000000 512.000000"
 preserveAspectRatio="xMidYMid meet">
<metadata>
Created by potrace 1.16, written by Peter Selinger 2001-2019
</metadata>
<g transform="translate(0.000000,512.000000) scale(0.100000,-0.100000)"
fill="#000000" stroke="none">
<path d="M564 3401 c-222 -36 -416 -182 -508 -383 -43 -94 -56 -156 -56 -274
0 -119 11 -166 65 -279 77 -160 209 -277 384 -339 79 -28 97 -30 216 -30 140
-1 203 12 300 61 103 53 201 149 249 247 52 105 79 278 60 375 l-7 31 -303 0
-304 0 0 -95 0 -95 211 0 212 0 -6 -35 c-28 -174 -203 -305 -407 -305 -136 0
-251 50 -342 149 -244 263 -120 685 227 776 135 35 284 2 396 -86 l36 -28 66
67 67 67 -52 42 c-64 52 -155 99 -228 118 -69 18 -209 26 -276 16z"/>
<path d="M4080 2740 l0 -620 95 0 95 0 0 620 0 620 -95 0 -95 0 0 -620z"/>
<path d="M1656 2929 c-63 -15 -153 -68 -202 -121 -180 -193 -137 -521 87 -655
268 -160 612 1 649 303 27 216 -89 403 -288 464 -68 21 -177 25 -246 9z m209
-186 c177 -88 178 -367 2 -452 -52 -25 -132 -28 -185 -5 -86 36 -142 127 -142
232 0 73 15 114 60 166 71 80 176 103 265 59z"/>
<path d="M3465 2927 c-113 -38 -209 -121 -256 -222 -113 -241 4 -519 250 -596
110 -34 216 -19 300 42 l43 31 -7 -63 c-10 -85 -20 -115 -51 -156 -39 -51
-102 -76 -179 -71 -76 5 -133 38 -173 102 l-28 43 -74 -29 c-41 -16 -79 -33
-83 -38 -14 -13 31 -89 84 -142 180 -180 517 -142 633 71 51 94 56 147 56 604
l0 417 -90 0 -90 0 0 -37 0 -36 -22 20 c-13 11 -43 31 -68 44 -55 28 -183 36
-245 16z m182 -172 c66 -20 126 -83 147 -156 20 -66 20 -102 1 -165 -48 -161
-226 -217 -353 -109 -66 55 -98 170 -73 262 22 81 97 155 174 173 47 11 49 11
104 -5z"/>
<path d="M4623 2926 c-173 -56 -283 -215 -283 -406 1 -125 34 -211 116 -299
170 -184 482 -171 637 28 l27 35 -75 49 -76 50 -32 -35 c-94 -102 -265 -105
-341 -6 -14 19 -26 37 -26 40 0 3 124 56 275 119 199 82 275 118 275 130 0 31
-62 140 -110 192 -72 79 -142 110 -255 114 -57 2 -105 -2 -132 -11z m204 -175
c34 -16 73 -57 61 -65 -4 -3 -317 -133 -342 -142 -17 -7 -18 -4 -12 31 16 84
65 144 146 179 47 21 97 19 147 -3z"/>
</g>
</svg>
